<?xml version="1.0" standalone="no"?>
<!DOCTYPE svg PUBLIC "-//W3C//DTD SVG 20010904//EN"
 "http://www.w3.org/TR/2001/REC-SVG-20010904/DTD/svg10.dtd">
<svg xmlns="http://www.w3.org/2000/svg"
     width="100%" height="100%"
     viewBox="0 0 410 225"
     preserveAspectRatio="xMinYMin slice">

<g transform="translate(-80.000000,444.000000) scale(0.100000,-0.100000)" stroke="none">
<g transform="translate(500 2050) scale(4) rotate(180 256 267)">
<rect x="96" y="44" width="320" height="65" rx="20" fill="#ffc100"/>
<path d="M84 170L123 122H389L428 170V440 A50 50 0 0 1 378 490H134 A50 50 0 0 1 84 440V170Z" fill="#ffc300"/>
</g>

<path fill="#654536" d="M2570 4412 c-25 -12 -72 -66 -160 -183 -313 -416 -397 -524 -535
-683 -152 -177 -194 -226 -211 -250 -12 -18 -14 -18 -44 7 -36 31 -101 51
-133 41 -35 -10 -67 -33 -67 -48 0 -8 64 -70 142 -138 229 -199 224 -196 248
-137 17 41 5 91 -34 138 l-34 41 156 153 c281 274 764 735 834 796 20 18 44
52 54 76 50 133 -86 252 -216 187z"/>
<path fill="#203145" d="M3549 3745 c-30 -9 -60 -29 -83 -55 -32 -36 -36 -46 -36 -96 0 -103
56 -155 200 -189 109 -25 130 -38 130 -80 0 -47 -29 -65 -103 -65 -51 0 -62 4
-85 28 -15 15 -31 36 -37 45 -9 17 -13 17 -60 1 -27 -9 -53 -19 -57 -23 -15
-13 31 -90 69 -115 98 -65 283 -56 361 17 79 74 62 212 -31 260 -21 11 -82 32
-135 48 -95 28 -122 45 -122 81 0 37 71 64 129 48 40 -11 63 -27 80 -58 9 -16
13 -15 66 2 52 18 56 21 50 45 -8 32 -49 76 -90 97 -43 23 -188 28 -246 9z"/>
<path fill="#203145" d="M2390 3455 l0 -295 65 0 64 0 3 113 3 112 108 3 108 3 -3 52 -3 52
-107 3 -108 3 0 69 0 70 120 0 120 0 0 55 0 55 -185 0 -185 0 0 -295z"/>
<path fill="#203145" d="M2840 3548 c0 -216 7 -263 47 -316 69 -92 269 -108 368 -30 58 45 65
80 65 326 l0 222 -59 0 -60 0 -3 -202 c-2 -167 -6 -208 -20 -234 -28 -52 -91
-68 -149 -38 -52 26 -59 61 -59 279 l0 195 -65 0 -65 0 0 -202z"/>
<path fill="#203145" d="M4010 3455 l0 -295 200 0 200 0 0 60 0 60 -135 0 -135 0 0 65 0 65
115 0 115 0 0 50 0 50 -115 0 -115 0 0 65 0 65 135 0 135 0 0 55 0 55 -200 0
-200 0 0 -295z"/>
<path fill="#203145" d="M4490 3440 l0 -50 155 0 155 0 0 50 0 50 -155 0 -155 0 0 -50z"/>
<path fill="#654536" d="M1293 3218 c-11 -13 -23 -28 -27 -35 -11 -20 14 -57 72 -103 30 -25
114 -96 186 -157 81 -70 139 -113 153 -113 26 0 63 44 63 76 0 18 -44 61 -192
189 -113 96 -202 165 -214 165 -11 0 -30 -10 -41 -22z"/>
<path fill="#654536" d="M1171 3054 c-43 -54 -32 -68 222 -291 125 -110 145 -119 191 -82 41
32 34 61 -28 112 -51 41 -124 105 -264 230 -35 31 -72 57 -82 57 -10 0 -28
-12 -39 -26z"/>
<path fill="#203145" d="M3724 3019 c-228 -52 -309 -354 -140 -523 95 -94 285 -100 399 -13
42 32 82 107 98 183 11 53 10 71 -4 127 -30 121 -97 192 -213 222 -64 17 -80
17 -140 4z m146 -131 c63 -44 75 -70 75 -168 0 -96 -10 -121 -69 -164 -43 -33
-132 -29 -180 7 -51 39 -68 86 -64 174 4 80 20 111 78 151 23 15 48 22 80 22
32 0 57 -7 80 -22z"/>

<path fill="#203145" d="M2507 3010 c-41 -12 -94 -56 -113 -92 -23 -44 -15 -124 16 -166 25
-34 100 -74 160 -87 67 -14 110 -36 116 -60 15 -59 -32 -92 -112 -80 -44 6
-75 27 -99 68 -9 15 -15 16 -55 3 -54 -16 -62 -40 -30 -90 59 -96 273 -115
367 -33 78 68 83 179 11 245 -27 25 -106 57 -167 67 -54 9 -106 54 -97 83 20
61 123 65 180 6 l33 -34 44 17 c24 9 46 18 48 20 2 1 -2 16 -9 33 -17 41 -71
87 -117 99 -44 13 -136 13 -176 1z"/>
<path fill="#203145" d="M2920 2720 l0 -290 65 0 65 0 0 120 0 120 115 0 115 0 0 -120 0 -120
65 0 65 0 0 290 0 290 -65 0 -65 0 0 -115 0 -115 -115 0 -115 0 0 115 0 115
-65 0 -65 0 0 -290z"/>
<path fill="#203145" d="M4170 2720 l0 -290 65 0 65 0 0 95 0 95 78 0 c116 1 173 32 207 113
28 68 14 168 -33 221 -39 44 -89 56 -239 56 l-143 0 0 -290z m259 175 c33 -17
41 -33 41 -85 0 -60 -23 -79 -102 -87 l-68 -6 0 97 0 96 50 0 c28 0 64 -7 79
-15z"/>
<path fill="#654536" d="M1124 2846 c-10 -40 14 -92 68 -152 57 -62 87 -80 146 -90 41 -6 82
8 82 29 0 16 -248 231 -271 235 -13 2 -20 -5 -25 -22z"/>
</g>
</svg>
